<?xml version="1.0" standalone="no"?>
<!DOCTYPE svg PUBLIC "-//W3C//DTD SVG 20010904//EN"
 "http://www.w3.org/TR/2001/REC-SVG-20010904/DTD/svg10.dtd">
<svg version="1.0" xmlns="http://www.w3.org/2000/svg"
 width="1340.000000pt" height="1340.000000pt" viewBox="0 0 1340.000000 1340.000000"
 preserveAspectRatio="xMidYMid meet">
<metadata>
Created by potrace 1.14, written by Peter Selinger 2001-2017
</metadata>
<g transform="translate(0.000000,1340.000000) scale(0.100000,-0.100000)"
fill="#000000" stroke="none">
<path d="M1613 13353 c-81 -39 -115 -103 -112 -208 2 -70 0 -78 -33 -127 -41
-63 -58 -109 -51 -137 3 -13 -7 -33 -35 -63 -70 -76 -86 -119 -88 -233 -1 -55
4 -138 12 -185 8 -53 11 -122 7 -185 -4 -72 -1 -122 11 -180 9 -44 18 -114 21
-155 5 -70 10 -119 20 -180 2 -14 11 -70 19 -125 9 -55 18 -116 21 -135 3 -19
7 -48 9 -65 2 -16 10 -77 19 -135 24 -157 36 -256 42 -345 12 -184 21 -206
125 -281 92 -67 210 -106 330 -109 41 -1 109 -6 150 -11 83 -9 201 -9 240 -1
83 18 221 64 255 85 89 54 135 129 135 218 0 63 6 68 15 14 3 -19 8 -51 11
-70 11 -65 55 -140 81 -140 7 0 13 -4 13 -9 0 -10 56 -32 62 -25 3 2 19 -28
37 -66 30 -65 50 -90 132 -166 42 -38 86 -99 164 -229 73 -121 111 -166 212
-255 34 -30 54 -73 67 -143 8 -45 53 -99 101 -121 18 -9 58 -16 88 -16 36 0
59 -5 67 -15 7 -8 17 -15 23 -15 6 0 18 -7 28 -16 11 -10 37 -16 68 -17 46 0
54 -4 78 -36 26 -34 91 -99 150 -150 15 -14 48 -36 73 -50 81 -46 164 -108
192 -142 14 -19 40 -49 56 -67 21 -24 35 -56 51 -125 28 -116 74 -261 84 -265
4 -2 7 -10 7 -17 0 -7 19 -28 42 -47 39 -30 49 -33 124 -36 l82 -4 21 -56 c23
-63 47 -197 56 -312 15 -191 87 -375 173 -438 40 -29 41 -33 42 -150 1 -74 14
-108 58 -156 18 -20 33 -44 35 -53 2 -10 14 -62 27 -117 27 -111 24 -143 -27
-293 -14 -43 -27 -107 -29 -143 -3 -70 13 -143 29 -133 6 4 7 1 2 -7 -5 -8
-10 -34 -11 -59 -2 -25 -8 -64 -14 -86 -6 -22 -13 -87 -16 -145 -13 -262 -12
-309 2 -362 8 -29 17 -64 20 -77 3 -14 8 -29 12 -35 3 -6 8 -31 10 -56 10
-144 53 -339 108 -495 23 -65 47 -155 59 -224 2 -15 12 -47 20 -72 9 -24 27
-86 40 -137 14 -52 37 -119 51 -151 15 -31 28 -69 29 -86 1 -16 5 -43 9 -60 3
-16 8 -39 10 -50 4 -18 28 -84 95 -260 18 -46 23 -77 36 -240 9 -105 13 -140
20 -157 5 -13 2 -18 -9 -18 -9 0 -16 -4 -16 -8 0 -5 -6 -9 -12 -10 -7 0 -38
-5 -68 -10 -30 -6 -116 -10 -190 -10 -135 0 -135 0 -210 36 -68 33 -85 37
-173 40 -78 3 -111 0 -168 -18 -69 -21 -133 -54 -174 -90 -11 -10 -38 -20 -60
-23 -22 -3 -51 -8 -65 -12 -14 -3 -54 -8 -90 -10 -117 -8 -127 -12 -227 -79
-65 -44 -113 -93 -113 -117 0 -9 -3 -18 -6 -22 -11 -10 -8 -110 4 -152 6 -22
11 -57 10 -77 -1 -20 8 -53 19 -74 11 -22 19 -47 17 -56 -1 -10 2 -20 7 -24 5
-3 7 -9 4 -14 -10 -16 90 -107 126 -115 19 -4 42 -14 51 -22 21 -19 78 -33
143 -37 64 -4 61 -3 81 -23 15 -16 37 -18 168 -17 130 1 158 4 197 21 46 21
46 21 60 1 27 -38 87 -60 158 -59 138 4 208 20 321 74 36 18 67 32 70 33 3 0
12 4 20 7 28 12 175 39 221 41 25 2 50 5 55 7 5 3 43 6 84 8 41 1 101 7 134
12 67 12 193 56 217 76 8 7 19 13 23 13 14 0 82 55 141 114 102 103 181 287
200 466 4 36 10 83 15 105 5 22 11 67 14 100 18 186 33 207 127 178 81 -25 79
-24 150 -27 36 -1 70 -5 75 -8 5 -3 23 -8 39 -12 17 -4 46 -17 65 -29 76 -48
115 -56 234 -51 235 11 246 10 331 -32 53 -26 94 -39 134 -41 75 -6 95 -17
134 -77 19 -28 68 -103 110 -167 43 -63 77 -119 77 -124 0 -14 88 -96 107
-100 10 -2 18 -4 18 -6 0 -1 13 -2 28 -3 27 -2 30 -7 74 -141 25 -77 49 -142
52 -145 4 -3 14 -16 23 -31 14 -22 14 -29 2 -58 -27 -64 -100 -131 -222 -202
-55 -32 -70 -36 -110 -33 -26 3 -63 6 -82 7 -19 2 -40 6 -45 9 -6 3 -74 5
-152 4 -126 -1 -145 -4 -170 -22 -15 -11 -41 -24 -57 -28 -17 -4 -43 -17 -60
-29 -33 -23 -96 -87 -96 -98 0 -3 -19 -12 -42 -19 -51 -15 -91 -41 -137 -89
-18 -20 -53 -56 -77 -81 -24 -25 -51 -63 -60 -85 -17 -41 -25 -163 -12 -171 5
-3 8 -14 8 -25 0 -10 5 -19 10 -19 6 0 10 -6 10 -14 0 -8 6 -16 13 -19 10 -4
13 -25 11 -77 -1 -39 -5 -74 -9 -78 -4 -4 -16 4 -27 18 -11 14 -34 43 -51 64
-18 21 -44 60 -59 87 -26 45 -75 90 -108 97 -36 8 -117 7 -145 -1 -47 -15 -91
-53 -112 -97 -15 -33 -18 -59 -16 -137 3 -110 9 -135 70 -258 74 -150 178
-276 298 -361 195 -138 270 -175 445 -221 127 -34 348 -39 449 -12 164 44 218
62 279 91 68 31 237 126 282 158 45 31 204 116 252 135 27 10 69 28 95 41 25
13 52 24 60 24 7 0 13 4 13 8 0 5 6 9 13 9 6 0 48 15 92 32 112 46 189 69 286
86 90 15 238 14 304 -3 22 -6 78 -13 125 -17 47 -3 112 -10 145 -15 135 -20
199 -24 375 -23 168 0 296 6 390 17 19 3 64 8 100 11 128 13 256 36 325 60
100 34 212 82 243 103 15 10 35 21 44 25 25 9 172 108 176 118 2 5 10 9 18 9
8 0 14 4 14 9 0 5 8 12 19 16 10 3 30 16 43 28 21 19 120 98 167 132 41 30
140 138 153 167 63 136 81 182 109 278 28 101 30 115 35 264 4 131 -5 223 -33
331 -8 33 -17 67 -18 75 -2 8 -4 16 -5 18 -2 1 -3 5 -5 10 -17 62 -101 221
-150 287 -88 116 -290 313 -390 380 -86 57 -269 154 -420 222 -76 35 -470 184
-630 239 -55 19 -123 46 -150 59 -28 14 -55 25 -60 25 -14 0 -59 35 -109 82
-26 26 -36 44 -33 55 19 56 54 149 59 158 4 6 15 46 26 90 19 76 27 125 37
223 2 23 11 57 19 75 22 47 54 165 60 217 11 98 28 178 51 235 43 110 53 199
54 463 1 109 3 124 21 139 11 10 20 23 20 29 0 7 6 14 12 16 9 3 13 32 13 94
0 83 -4 97 -48 209 -95 238 -96 241 -98 398 -1 182 -22 296 -87 487 -20 60
-25 92 -23 160 2 96 -12 133 -96 245 -25 33 -48 67 -51 75 -3 8 -11 20 -16 26
-6 7 -24 34 -40 60 -28 46 -30 56 -30 154 -1 70 -5 110 -14 120 -22 26 -46 58
-67 87 -11 15 -40 50 -65 78 -57 62 -118 145 -155 210 -39 67 -68 107 -138
187 -32 36 -72 93 -89 125 -81 151 -152 234 -454 523 -136 130 -165 155 -234
205 -30 21 -82 65 -115 96 -33 32 -73 68 -90 80 -16 13 -41 34 -55 49 -31 31
-112 84 -205 135 -115 63 -285 198 -285 226 0 4 -16 24 -35 45 -36 39 -91 123
-84 127 13 9 114 48 164 63 99 31 262 153 328 244 63 90 94 145 121 220 30 84
31 87 31 285 -1 192 -2 203 -29 284 -18 53 -48 112 -83 164 -64 93 -98 129
-184 192 -35 26 -63 51 -61 56 1 5 -1 8 -5 7 -15 -4 -53 13 -53 23 0 6 -4 8
-9 5 -5 -3 -24 2 -42 12 -46 23 -197 28 -320 9 -95 -14 -156 -37 -246 -92 -24
-14 -43 -22 -43 -16 0 15 -80 92 -89 86 -5 -2 -14 2 -21 10 -7 8 -16 12 -21 9
-5 -3 -39 -7 -76 -9 -36 -2 -69 -8 -72 -14 -4 -5 -29 -12 -56 -14 -79 -7 -117
-38 -210 -170 -13 -19 -48 -29 -70 -20 -8 3 -12 9 -9 14 3 5 0 9 -5 9 -6 0
-10 4 -8 8 4 14 -47 82 -65 88 -10 3 -18 10 -18 15 0 6 -5 7 -10 4 -6 -4 -16
-3 -23 2 -19 14 -119 9 -152 -8 -18 -9 -40 -12 -55 -8 -14 4 -42 7 -62 8 -34
1 -38 4 -38 26 0 14 -7 28 -15 31 -8 3 -17 13 -20 23 -5 17 -64 57 -77 53 -5
-1 -8 1 -8 6 0 4 -32 7 -70 7 -39 0 -70 -4 -70 -9 0 -4 -7 -5 -15 -2 -9 3 -18
-1 -21 -9 -4 -8 -11 -15 -18 -15 -16 0 -45 -36 -67 -84 -11 -25 -20 -35 -23
-26 -2 8 -14 47 -25 85 -33 113 -114 216 -211 269 -44 24 -66 29 -129 30 -76
2 -102 -1 -215 -24 l-59 -12 -61 60 c-79 77 -112 92 -198 92 -39 0 -93 8 -126
18 -72 24 -164 22 -215 -2 -42 -21 -92 -79 -82 -96 3 -5 2 -10 -3 -10 -17 0
-13 -127 5 -168 15 -35 61 -76 106 -94 10 -5 17 -14 14 -20 -2 -7 1 -20 8 -28
7 -8 29 -46 49 -83 20 -37 46 -82 56 -100 24 -39 27 -61 3 -27 -9 14 -19 27
-22 30 -8 7 -59 68 -106 126 -44 55 -305 319 -305 308 0 -3 -7 0 -16 7 -25 21
-58 25 -148 18 -52 -3 -94 -33 -129 -89 -13 -21 -24 -120 -17 -155 1 -5 2 -13
2 -17 -1 -3 5 -12 13 -18 8 -7 15 -16 15 -20 0 -5 33 -42 74 -84 69 -71 74
-80 78 -125 l3 -49 -27 20 c-16 10 -32 16 -38 13 -5 -3 -10 -2 -10 3 0 5 -30
7 -67 6 -86 -3 -102 -7 -114 -25 -5 -8 -9 -10 -9 -6 0 11 -43 -41 -59 -70 -16
-32 -14 -139 5 -179 20 -41 50 -72 129 -130 33 -25 68 -52 78 -60 9 -8 21 -14
26 -14 4 0 16 -9 26 -20 17 -19 17 -19 -16 -9 -45 13 -178 19 -185 8 -3 -5
-10 -6 -16 -3 -6 4 -17 -1 -25 -11 -7 -11 -13 -15 -13 -10 0 5 -8 0 -18 -11
-24 -27 -54 -74 -46 -74 4 0 2 -6 -3 -12 -17 -25 -1 -168 19 -168 6 0 8 -3 5
-7 -4 -3 0 -11 9 -17 11 -9 3 -11 -38 -10 -29 0 -63 -3 -75 -7 -26 -9 -61 23
-213 196 -52 59 -106 120 -120 134 -13 14 -25 38 -26 52 -3 46 -15 89 -25 89
-5 0 -9 6 -9 13 0 7 -18 29 -39 49 -37 33 -39 39 -37 85 2 26 -2 62 -7 78 -15
47 -70 108 -118 133 -63 32 -79 46 -79 71 0 11 -4 21 -10 21 -5 0 -7 7 -4 15
4 8 1 15 -5 15 -6 0 -11 5 -11 12 0 7 -19 30 -43 53 -47 44 -147 168 -147 182
0 5 -18 46 -40 91 -23 47 -40 96 -40 116 0 19 -5 47 -10 62 -13 32 -80 98
-120 115 -29 13 -52 38 -143 149 -73 90 -87 115 -87 150 0 36 -20 87 -47 117
-29 33 -134 83 -183 89 -26 2 -122 28 -240 65 -36 11 -74 22 -85 24 -11 2 -21
4 -22 5 -2 2 -6 3 -10 5 -5 1 -26 10 -48 21 -55 25 -235 30 -282 7z m8267
-9546 c8 -2 17 -4 20 -4 3 1 19 -6 35 -15 17 -8 41 -21 55 -27 26 -12 464
-160 490 -166 8 -2 49 -19 90 -38 41 -19 104 -47 140 -62 125 -53 285 -134
320 -162 114 -92 196 -207 207 -292 7 -51 -18 -90 -122 -192 -121 -118 -174
-153 -350 -229 -27 -12 -59 -23 -70 -26 -11 -2 -47 -10 -80 -18 -106 -25 -221
-31 -655 -31 -371 -1 -569 -7 -660 -20 -14 -2 -45 -6 -70 -10 l-45 -6 36 33
c20 18 70 63 111 100 54 48 83 84 107 130 29 59 32 72 33 164 1 86 4 103 24
130 12 17 27 59 34 95 31 180 42 210 98 269 62 65 118 178 167 330 23 72 22
71 48 60 12 -4 29 -10 37 -13z"/>
</g>
</svg>
